<svg height="512" viewBox="0 0 64 64" width="512" xmlns="http://www.w3.org/2000/svg" xmlns:xlink="http://www.w3.org/1999/xlink"><linearGradient id="New_Gradient_Swatch_3" gradientUnits="userSpaceOnUse" x1="32" x2="32" y1="66.006" y2="-3.857"><stop offset="0" stop-color="#006df0"/><stop offset="1" stop-color="#00e7f0"/></linearGradient><linearGradient id="New_Gradient_Swatch_3-2" x1="43" x2="43" xlink:href="#New_Gradient_Swatch_3" y1="66" y2="-3.863"/><linearGradient id="New_Gradient_Swatch_3-3" x1="9" x2="9" xlink:href="#New_Gradient_Swatch_3" y1="66" y2="-3.863"/><linearGradient id="New_Gradient_Swatch_3-4" x1="16" x2="16" xlink:href="#New_Gradient_Swatch_3" y1="66" y2="-3.863"/><linearGradient id="New_Gradient_Swatch_3-5" x1="23" x2="23" xlink:href="#New_Gradient_Swatch_3" y1="66" y2="-3.863"/><g id="Web_design" data-name="Web design"><path d="m59 2h-54a3 3 0 0 0 -3 3v54a3 3 0 0 0 3 3h54a3 3 0 0 0 3-3v-54a3 3 0 0 0 -3-3zm-55 3a1 1 0 0 1 1-1h54a1 1 0 0 1 1 1v9h-56zm28 36a1 1 0 1 1 -1 1 1 1 0 0 1 1-1zm-1-1.816a3 3 0 1 0 2 0v-7.4l4.865 11.116-3.4 5.1h-4.93l-3.4-5.1 4.865-11.119zm-3 10.816h8a1 1 0 0 1 1 1v1h-10v-1a1 1 0 0 1 1-1zm-1 10v-6h10v6zm33-1a1 1 0 0 1 -1 1h-20v-9a3 3 0 0 0 -2.211-2.881l3.043-4.564a1 1 0 0 0 .084-.956l-7-16a1 1 0 0 0 -1.832 0l-7 16a1 1 0 0 0 .084.956l3.043 4.564a3 3 0 0 0 -2.211 2.881v9h-20a1 1 0 0 1 -1-1v-43h56z" fill="url(#New_Gradient_Swatch_3)"/><path d="m57 6h-28a1 1 0 0 0 -1 1v4a1 1 0 0 0 1 1h28a1 1 0 0 0 1-1v-4a1 1 0 0 0 -1-1zm-1 4h-26v-2h26z" fill="url(#New_Gradient_Swatch_3-2)"/><path d="m9 6a3 3 0 1 0 3 3 3 3 0 0 0 -3-3zm0 4a1 1 0 1 1 1-1 1 1 0 0 1 -1 1z" fill="url(#New_Gradient_Swatch_3-3)"/><path d="m16 6a3 3 0 1 0 3 3 3 3 0 0 0 -3-3zm0 4a1 1 0 1 1 1-1 1 1 0 0 1 -1 1z" fill="url(#New_Gradient_Swatch_3-4)"/><path d="m23 6a3 3 0 1 0 3 3 3 3 0 0 0 -3-3zm0 4a1 1 0 1 1 1-1 1 1 0 0 1 -1 1z" fill="url(#New_Gradient_Swatch_3-5)"/><path d="m46.959 40.2a3 3 0 1 0 2-.026 17.005 17.005 0 0 0 -8.976-14.174h8.2a3 3 0 1 0 0-2h-32.367a3 3 0 1 0 0 2h8.2a17.005 17.005 0 0 0 -8.975 14.171 3 3 0 1 0 2 .026 14.979 14.979 0 0 1 29.918 0zm1.041 3.8a1 1 0 1 1 1-1 1 1 0 0 1 -1 1zm3-20a1 1 0 1 1 -1 1 1 1 0 0 1 1-1zm-38 2a1 1 0 1 1 1-1 1 1 0 0 1 -1 1zm3 18a1 1 0 1 1 1-1 1 1 0 0 1 -1 1z" fill="url(#New_Gradient_Swatch_3)"/></g></svg>