<svg height="512" viewBox="0 0 64 64" width="512" xmlns="http://www.w3.org/2000/svg" xmlns:xlink="http://www.w3.org/1999/xlink"><linearGradient id="New_Gradient_Swatch_3" gradientUnits="userSpaceOnUse" x1="31.645" x2="31.645" y1="63.993" y2="6.571"><stop offset="0" stop-color="#006df0"/><stop offset="1" stop-color="#00e7f0"/></linearGradient><linearGradient id="New_Gradient_Swatch_3-2" x1="48.97" x2="48.97" xlink:href="#New_Gradient_Swatch_3" y1="63.993" y2="6.571"/><g id="Layer_50" data-name="Layer 50"><path d="m58.17 39.78a13.1 13.1 0 0 0 -12-3.51l-4.27-4.27 17.67-17.67a7 7 0 1 0 -9.9-9.9l-17.67 17.67-4.98-4.98a13.006 13.006 0 0 0 -17.23-14.99 1.005 1.005 0 0 0 -.36 1.65l7.32 7.32-1.13 4.52-4.52 1.13-7.32-7.32a1.005 1.005 0 0 0 -1.65.36 13.006 13.006 0 0 0 14.99 17.23l4.98 4.98-15.56 15.56a1.1 1.1 0 0 0 -.23.37c0 .01-4.26 12.75-4.26 12.75a1 1 0 0 0 .95 1.32 1.185 1.185 0 0 0 .32-.05s12.74-4.26 12.75-4.26a1.1 1.1 0 0 0 .37-.23l15.56-15.56 4.27 4.27a13.1 13.1 0 0 0 3.51 12 13 13 0 0 0 18.39-18.39zm-7.09-33.93a5 5 0 1 1 7.07 7.07l-2.12 2.12-7.07-7.07zm-3.53 3.53 7.07 7.07-2.83 2.83-7.07-7.07zm-29.41 15.83a1.022 1.022 0 0 0 -.97-.26 11.009 11.009 0 0 1 -13.61-12.91l6.52 6.53a.985.985 0 0 0 .95.26l5.65-1.42a1 1 0 0 0 .73-.73l1.42-5.65a.985.985 0 0 0 -.26-.95l-6.53-6.52a11.009 11.009 0 0 1 12.91 13.61 1.022 1.022 0 0 0 .26.97l5.38 5.37-2.83 2.83-4.05-4.05a1 1 0 0 0 -1.42 1.42l4.05 4.05-2.83 2.83zm25.17-11.59 1.41 1.42-32.23 32.23h-2.83zm-38.73 45.8 1.24-3.71a5.807 5.807 0 0 1 1.42 1.05 5.807 5.807 0 0 1 1.05 1.42zm10.15-3.38-4.52 1.5a7.879 7.879 0 0 0 -3.75-3.75l1.5-4.52h3.72l-.47 2.34a1.013 1.013 0 0 0 1.18 1.18l2.34-.47zm.51-5.86-1.77.35.35-1.77 32.31-32.31 1.42 1.42zm1.49 4.16v-2.83l32.23-32.23 1.42 1.41zm40.02 2.41a11.007 11.007 0 0 1 -18.41-10.63 1.015 1.015 0 0 0 -.26-.97l-4.67-4.66 2.83-2.83 4.05 4.05a1.014 1.014 0 0 0 1.42 0 1.008 1.008 0 0 0 0-1.42l-4.05-4.05 2.83-2.83 4.66 4.67a1.015 1.015 0 0 0 .97.26 11.007 11.007 0 0 1 10.63 18.41z" fill="url(#New_Gradient_Swatch_3)"/><path d="m51.172 42.687a1 1 0 0 0 -.966-.259l-5.577 1.494a1 1 0 0 0 -.707.707l-1.494 5.577a1 1 0 0 0 .259.966l4.082 4.082a1 1 0 0 0 .966.259l5.577-1.494a1 1 0 0 0 .707-.707l1.494-5.577a1 1 0 0 0 -.259-.966zm1.065 9.55-4.462 1.2-3.266-3.266 1.2-4.461 4.461-1.2 3.266 3.266z" fill="url(#New_Gradient_Swatch_3-2)"/></g></svg>