<svg height="512" viewBox="0 0 64 64" width="512" xmlns="http://www.w3.org/2000/svg" xmlns:xlink="http://www.w3.org/1999/xlink"><linearGradient id="New_Gradient_Swatch_3" gradientUnits="userSpaceOnUse" x1="32" x2="32" y1="63.928" y2="2.111"><stop offset="0" stop-color="#006df0"/><stop offset="1" stop-color="#00e7f0"/></linearGradient><g id="Layer_43" fill="url(#New_Gradient_Swatch_3)" data-name="Layer 43"><path d="m59 2h-54a3.009 3.009 0 0 0 -3 3v44a3.009 3.009 0 0 0 3 3h19v4h-5a3.009 3.009 0 0 0 -3 3v2a1 1 0 0 0 1 1h30a1 1 0 0 0 1-1v-2a3.009 3.009 0 0 0 -3-3h-5v-4h19a3.009 3.009 0 0 0 3-3v-44a3.009 3.009 0 0 0 -3-3zm-14 56a1 1 0 0 1 1 1v1h-28v-1a1 1 0 0 1 1-1zm-19-2v-4h12v4zm34-7a1 1 0 0 1 -1 1h-54a1 1 0 0 1 -1-1v-3h56zm0-5h-56v-39a1 1 0 0 1 1-1h54a1 1 0 0 1 1 1z"/><path d="m33 47h-2a1 1 0 0 0 0 2h2a1 1 0 0 0 0-2z"/><path d="m55 13a1 1 0 0 0 1-1v-4a1 1 0 0 0 -1-1h-4a1 1 0 0 0 -1 1v1h-36v-1a1 1 0 0 0 -1-1h-4a1 1 0 0 0 -1 1v4a1 1 0 0 0 1 1h1v6h-1a1 1 0 0 0 -1 1v4a1 1 0 0 0 1 1h1v10h-1a1 1 0 0 0 -1 1v4a1 1 0 0 0 1 1h4a1 1 0 0 0 1-1v-1h18v1a1 1 0 0 0 1 1h4a1 1 0 0 0 1-1v-1h12v1a1 1 0 0 0 1 1h4a1 1 0 0 0 1-1v-4a1 1 0 0 0 -1-1h-1v-22zm-45-4h2v2h-2zm0 12h2v2h-2zm2 18h-2v-2h2zm20-3v1h-18v-1a1 1 0 0 0 -1-1h-1v-10h1a1 1 0 0 0 1-1v-1h18v.59l-2 2v-.59a1 1 0 0 0 -2 0v3a1 1 0 0 0 1 1h3a1 1 0 0 0 0-2h-.59l2-2h.59v10h-1a1 1 0 0 0 -1 1zm4 3h-2v-2h2zm-2-16v-2h2v2zm16 13v1h-12v-1a1 1 0 0 0 -1-1h-1v-10h1a1 1 0 0 0 1-1v-3.59l2-2v.59a1 1 0 0 0 2 0v-3a1 1 0 0 0 -1-1h-3a1 1 0 0 0 0 2h.59l-2 2h-3.59a1 1 0 0 0 -1 1v1h-18v-1a1 1 0 0 0 -1-1h-1v-6h1a1 1 0 0 0 1-1v-1h36v1a1 1 0 0 0 1 1h1v22h-1a1 1 0 0 0 -1 1zm4 3h-2v-2h2zm-2-28v-2h2v2z"/></g></svg>